<svg width="40" height="50" viewBox="0 0 40 50" fill="none" xmlns="http://www.w3.org/2000/svg">
<path d="M37.9488 12.8308L27.436 2.06458C26.1538 0.782902 24.359 0.013877 22.3078 0.013877H7.1795C3.33333 -0.242473 0 3.08995 0 6.93503V42.8225C0 46.6675 3.07693 50 7.1795 50H32.8205C36.6668 50 40 46.924 40 42.8225V17.7013C40 15.9069 39.2308 14.1125 37.9488 12.8308ZM12.3077 20.2648H20C21.0258 20.2648 22.0513 21.0338 22.0513 22.3155C22.0513 23.597 21.282 24.366 20 24.366H12.3077C11.2821 24.366 10.2564 23.597 10.2564 22.3155C10.2564 21.0338 11.2821 20.2648 12.3077 20.2648ZM27.6923 34.6198H12.3077C11.2821 34.6198 10.2564 33.8508 10.2564 32.569C10.2564 31.2873 11.0257 30.5183 12.3077 30.5183H27.6923C28.718 30.5183 29.7435 31.2873 29.7435 32.569C29.7435 33.8508 28.718 34.6198 27.6923 34.6198Z" fill="url(#paint0_linear_2464_1798)"/>
<defs>
<linearGradient id="paint0_linear_2464_1798" x1="0" y1="25" x2="40" y2="25" gradientUnits="userSpaceOnUse">
<stop stop-color="#C836FD"/>
<stop offset="0.551196" stop-color="#FF609E"/>
<stop offset="1" stop-color="#FFA24D"/>
</linearGradient>
</defs>
</svg>
