<svg width="57" height="50" viewBox="0 0 57 50" fill="none" xmlns="http://www.w3.org/2000/svg">
<path d="M44.0513 2.79667C43.5551 1.9524 42.8488 1.25104 42.001 0.760919C41.1532 0.270802 40.193 0.00864835 39.2138 0H16.8026C15.8234 0.00864835 14.8631 0.270802 14.0153 0.760919C13.1676 1.25104 12.4612 1.9524 11.9651 2.79667L0.759493 22.2033C0.26194 23.0651 0 24.0427 0 25.0378C0 26.0329 0.26194 27.0105 0.759493 27.8723L11.9651 47.2033C12.4612 48.0476 13.1676 48.749 14.0153 49.2391C14.8631 49.7292 15.8234 49.9914 16.8026 50H39.2138C40.193 49.9914 41.1532 49.7292 42.001 49.2391C42.8488 48.749 43.5551 48.0476 44.0513 47.2033L55.2568 27.7967C55.7544 26.9349 56.0163 25.9573 56.0163 24.9622C56.0163 23.9671 55.7544 22.9895 55.2568 22.1277L44.0513 2.79667ZM37.4564 25C37.4564 26.8687 36.9023 28.6954 35.8641 30.2492C34.8259 31.8029 33.3503 33.0139 31.6239 33.729C29.8974 34.4441 27.9977 34.6312 26.1649 34.2667C24.3321 33.9021 22.6486 33.0023 21.3273 31.6809C20.0059 30.3595 19.1061 28.676 18.7415 26.8433C18.3769 25.0105 18.564 23.1108 19.2792 21.3843C19.9943 19.6579 21.2053 18.1823 22.759 17.1441C24.3128 16.1059 26.1395 15.5518 28.0082 15.5518C30.514 15.5518 32.9172 16.5472 34.6891 18.3191C36.461 20.091 37.4564 22.4942 37.4564 25Z" fill="url(#paint0_linear_2464_1809)"/>
<defs>
<linearGradient id="paint0_linear_2464_1809" x1="0" y1="25" x2="56.0163" y2="25" gradientUnits="userSpaceOnUse">
<stop stop-color="#C836FD"/>
<stop offset="0.551196" stop-color="#FF609E"/>
<stop offset="1" stop-color="#FFA24D"/>
</linearGradient>
</defs>
</svg>
