<svg width="54" height="50" viewBox="0 0 54 50" fill="none" xmlns="http://www.w3.org/2000/svg">
<path d="M39.5347 13.9535H27.9068V7.95C29.5835 7.44767 30.8138 5.91046 30.8138 4.06977C30.8138 1.82209 28.9917 0 26.744 0C24.4963 0 22.6742 1.82209 22.6742 4.06977C22.6742 5.91046 23.9045 7.44767 25.5812 7.95V13.9535H13.9533C10.0998 13.9535 6.97656 17.0767 6.97656 20.9302V43.0233C6.97656 46.8767 10.0998 50 13.9533 50H39.5347C43.3882 50 46.5114 46.8767 46.5114 43.0233V20.9302C46.5114 17.0767 43.3882 13.9535 39.5347 13.9535ZM15.1161 27.3256C15.1161 25.0779 16.9382 23.2558 19.1859 23.2558C21.4335 23.2558 23.2556 25.0779 23.2556 27.3256C23.2556 29.5733 21.4335 31.3953 19.1859 31.3953C16.9382 31.3953 15.1161 29.5733 15.1161 27.3256ZM34.2521 40.057C31.9556 41.2372 29.3591 41.8605 26.744 41.8605C24.1289 41.8605 21.5324 41.2372 19.2359 40.057C18.6649 39.7628 18.4394 39.0628 18.7324 38.4907C19.0254 37.9209 19.7254 37.6942 20.2987 37.9872C24.2928 40.0407 29.1952 40.0407 33.1894 37.9872C33.7603 37.6942 34.4614 37.9198 34.7556 38.4907C35.0487 39.0616 34.8242 39.7628 34.2521 40.057ZM34.3021 31.3953C32.0545 31.3953 30.2324 29.5733 30.2324 27.3256C30.2324 25.0779 32.0545 23.2558 34.3021 23.2558C36.5498 23.2558 38.3719 25.0779 38.3719 27.3256C38.3719 29.5733 36.5498 31.3953 34.3021 31.3953Z" fill="url(#paint0_linear_2464_1821)"/>
<path d="M34.3023 29.0697C35.2656 29.0697 36.0465 28.2888 36.0465 27.3255C36.0465 26.3622 35.2656 25.5813 34.3023 25.5813C33.339 25.5813 32.5581 26.3622 32.5581 27.3255C32.5581 28.2888 33.339 29.0697 34.3023 29.0697Z" fill="url(#paint1_linear_2464_1821)"/>
<path d="M19.1861 29.0697C20.1494 29.0697 20.9303 28.2888 20.9303 27.3255C20.9303 26.3622 20.1494 25.5813 19.1861 25.5813C18.2228 25.5813 17.4419 26.3622 17.4419 27.3255C17.4419 28.2888 18.2228 29.0697 19.1861 29.0697Z" fill="url(#paint2_linear_2464_1821)"/>
<path d="M50.0002 24.4187H48.8374V39.535H50.0002C51.9269 39.535 53.4886 37.9734 53.4886 36.0466V27.9071C53.4886 25.9803 51.9269 24.4187 50.0002 24.4187Z" fill="url(#paint3_linear_2464_1821)"/>
<path d="M4.65116 24.4187H3.48837C1.56163 24.4187 0 25.9803 0 27.9071V36.0466C0 37.9734 1.56163 39.535 3.48837 39.535H4.65116V24.4187Z" fill="url(#paint4_linear_2464_1821)"/>
<defs>
<linearGradient id="paint0_linear_2464_1821" x1="6.97656" y1="25" x2="46.5114" y2="25" gradientUnits="userSpaceOnUse">
<stop stop-color="#C836FD"/>
<stop offset="0.551196" stop-color="#FF609E"/>
<stop offset="1" stop-color="#FFA24D"/>
</linearGradient>
<linearGradient id="paint1_linear_2464_1821" x1="32.5581" y1="27.3255" x2="36.0465" y2="27.3255" gradientUnits="userSpaceOnUse">
<stop stop-color="#C836FD"/>
<stop offset="0.551196" stop-color="#FF609E"/>
<stop offset="1" stop-color="#FFA24D"/>
</linearGradient>
<linearGradient id="paint2_linear_2464_1821" x1="17.4419" y1="27.3255" x2="20.9303" y2="27.3255" gradientUnits="userSpaceOnUse">
<stop stop-color="#C836FD"/>
<stop offset="0.551196" stop-color="#FF609E"/>
<stop offset="1" stop-color="#FFA24D"/>
</linearGradient>
<linearGradient id="paint3_linear_2464_1821" x1="48.8374" y1="31.9768" x2="53.4886" y2="31.9768" gradientUnits="userSpaceOnUse">
<stop stop-color="#C836FD"/>
<stop offset="0.551196" stop-color="#FF609E"/>
<stop offset="1" stop-color="#FFA24D"/>
</linearGradient>
<linearGradient id="paint4_linear_2464_1821" x1="0" y1="31.9768" x2="4.65116" y2="31.9768" gradientUnits="userSpaceOnUse">
<stop stop-color="#C836FD"/>
<stop offset="0.551196" stop-color="#FF609E"/>
<stop offset="1" stop-color="#FFA24D"/>
</linearGradient>
</defs>
</svg>
